<svg data-v-423bf9ae="" xmlns="http://www.w3.org/2000/svg" viewBox="0 0 553 90" class="iconLeft"><!----><!----><!----><g data-v-423bf9ae="" id="8b77d77e-a837-4832-b16b-e5c1308e2319" fill="#000000" transform="matrix(4.319654617459175,0,0,4.319654617459175,66.08844404661801,1.9978413115733744)"><path d="M6.86 3.71L8.67 3.71L5.18 13.51L3.49 13.51L0 3.71L1.81 3.71L4.33 10.92L6.86 3.71ZM12.14 13.65Q10.92 13.65 10.06 13.15Q9.20 12.66 8.77 11.82Q8.34 10.99 8.34 9.97L8.34 9.97Q8.34 8.99 8.75 8.18Q9.16 7.36 9.93 6.88Q10.70 6.40 11.76 6.40L11.76 6.40Q12.74 6.40 13.42 6.80Q14.10 7.21 14.44 7.90Q14.78 8.58 14.78 9.44L14.78 9.44Q14.78 9.86 14.67 10.39L14.67 10.39L10.15 10.39Q10.29 11.31 10.88 11.77Q11.47 12.22 12.29 12.22L12.29 12.22Q13.43 12.22 14.39 11.65L14.39 11.65L14.48 13.12Q14.03 13.36 13.43 13.50Q12.84 13.65 12.14 13.65L12.14 13.65ZM10.19 9.21L13.02 9.21Q13.02 8.67 12.71 8.25Q12.40 7.83 11.76 7.83L11.76 7.83Q11.12 7.83 10.72 8.20Q10.33 8.58 10.19 9.21L10.19 9.21ZM15.97 13.51L15.97 6.51L17.60 6.51L17.64 7.25Q17.95 6.90 18.43 6.64Q18.91 6.37 19.45 6.37L19.45 6.37Q19.61 6.37 19.75 6.40L19.75 6.40L19.63 8.11Q19.36 8.04 19.03 8.04L19.03 8.04Q18.59 8.04 18.23 8.24Q17.86 8.44 17.71 8.74L17.71 8.74L17.71 13.51L15.97 13.51ZM24.23 6.40Q25.23 6.40 25.94 6.89Q26.66 7.38 27.02 8.20Q27.38 9.03 27.38 10.02L27.38 10.02Q27.38 11.02 27.02 11.84Q26.66 12.67 25.94 13.16Q25.23 13.65 24.23 13.65L24.23 13.65Q23.13 13.65 22.23 13.05L22.23 13.05L22.20 13.51L20.58 13.51L20.58 3.01L22.32 3.01L22.32 7.03Q23.17 6.40 24.23 6.40L24.23 6.40ZM23.98 12.22Q24.75 12.22 25.18 11.62Q25.61 11.02 25.61 10.02L25.61 10.02Q25.61 9.03 25.18 8.43Q24.75 7.83 23.98 7.83L23.98 7.83Q23.10 7.83 22.67 8.41Q22.23 9.00 22.23 10.02L22.23 10.02Q22.23 11.05 22.67 11.63Q23.10 12.22 23.98 12.22L23.98 12.22ZM31.96 13.65Q30.74 13.65 29.88 13.15Q29.02 12.66 28.59 11.82Q28.17 10.99 28.17 9.97L28.17 9.97Q28.17 8.99 28.57 8.18Q28.98 7.36 29.75 6.88Q30.52 6.40 31.58 6.40L31.58 6.40Q32.56 6.40 33.24 6.80Q33.92 7.21 34.27 7.90Q34.61 8.58 34.61 9.44L34.61 9.44Q34.61 9.86 34.50 10.39L34.50 10.39L29.97 10.39Q30.11 11.31 30.70 11.77Q31.29 12.22 32.12 12.22L32.12 12.22Q33.25 12.22 34.22 11.65L34.22 11.65L34.30 13.12Q33.85 13.36 33.26 13.50Q32.66 13.65 31.96 13.65L31.96 13.65ZM30.02 9.21L32.84 9.21Q32.84 8.67 32.54 8.25Q32.23 7.83 31.58 7.83L31.58 7.83Q30.94 7.83 30.55 8.20Q30.16 8.58 30.02 9.21L30.02 9.21ZM39.33 6.40Q40.63 6.40 41.30 7.27Q41.97 8.13 41.97 9.60L41.97 9.60L41.97 13.51L40.24 13.51L40.24 9.74Q40.24 8.76 39.91 8.29Q39.58 7.83 38.85 7.83L38.85 7.83Q38.05 7.83 37.53 8.43L37.53 8.43L37.53 13.51L35.80 13.51L35.80 6.51L37.42 6.51L37.45 7Q38.33 6.40 39.33 6.40L39.33 6.40ZM45.04 13.65Q44.17 13.65 43.59 13.08Q43.01 12.52 43.01 11.55L43.01 11.55Q43.01 10.64 43.67 10.09Q44.32 9.53 45.22 9.30Q46.12 9.07 46.94 9.04L46.94 9.04Q46.91 8.43 46.63 8.16Q46.34 7.90 45.68 7.90L45.68 7.90Q45.22 7.90 44.78 8.02Q44.34 8.15 43.76 8.43L43.76 8.43L43.61 7.01Q44.88 6.40 46.16 6.40L46.16 6.40Q47.39 6.40 48.04 7.07Q48.69 7.74 48.69 9.21L48.69 9.21L48.69 11.10Q48.69 11.63 48.74 11.87Q48.79 12.10 48.91 12.16Q49.03 12.22 49.31 12.22L49.31 12.22L49.53 12.22L49.38 13.65L48.75 13.65Q48.17 13.65 47.78 13.43Q47.39 13.22 47.18 12.84L47.18 12.84Q46.84 13.22 46.26 13.43Q45.68 13.65 45.04 13.65L45.04 13.65ZM45.77 12.32Q46.03 12.32 46.37 12.19Q46.70 12.05 46.96 11.82L46.96 11.82L46.96 10.22Q46.12 10.26 45.47 10.58Q44.83 10.91 44.83 11.48L44.83 11.48Q44.83 11.91 45.05 12.12Q45.28 12.32 45.77 12.32L45.77 12.32ZM53.91 13.51L53.91 3.71L57.40 3.71Q60.89 3.71 60.89 6.87L60.89 6.87Q60.89 8.51 60.00 9.31Q59.12 10.11 57.44 10.11L57.44 10.11L55.71 10.11L55.71 13.51L53.91 13.51ZM55.71 8.61L57.23 8.61Q58.16 8.61 58.61 8.19Q59.07 7.77 59.07 6.90L59.07 6.90Q59.07 6.03 58.60 5.62Q58.14 5.21 57.19 5.21L57.19 5.21L55.71 5.21L55.71 8.61ZM61.88 13.51L61.88 6.51L63.50 6.51L63.55 7.25Q63.85 6.90 64.34 6.64Q64.82 6.37 65.35 6.37L65.35 6.37Q65.52 6.37 65.66 6.40L65.66 6.40L65.53 8.11Q65.27 8.04 64.93 8.04L64.93 8.04Q64.50 8.04 64.13 8.24Q63.77 8.44 63.62 8.74L63.62 8.74L63.62 13.51L61.88 13.51ZM69.55 13.65Q68.45 13.65 67.63 13.16Q66.82 12.67 66.39 11.84Q65.95 11.02 65.95 10.02L65.95 10.02Q65.95 9.03 66.39 8.19Q66.82 7.35 67.63 6.86Q68.45 6.37 69.55 6.37L69.55 6.37Q70.66 6.37 71.47 6.86Q72.28 7.35 72.72 8.19Q73.15 9.03 73.15 10.02L73.15 10.02Q73.15 11.02 72.72 11.84Q72.28 12.67 71.47 13.16Q70.66 13.65 69.55 13.65L69.55 13.65ZM69.55 12.22Q70.41 12.22 70.89 11.62Q71.37 11.02 71.37 10.02L71.37 10.02Q71.37 9.02 70.89 8.41Q70.41 7.80 69.55 7.80L69.55 7.80Q68.70 7.80 68.22 8.41Q67.73 9.02 67.73 10.02L67.73 10.02Q67.73 11.02 68.22 11.62Q68.70 12.22 69.55 12.22L69.55 12.22ZM74.75 16.90L76.30 13.05L73.39 6.51L75.32 6.51L77.11 11.02L78.93 6.51L80.86 6.51L76.48 16.90L74.75 16.90ZM84.92 13.65Q83.71 13.65 82.84 13.15Q81.98 12.66 81.56 11.82Q81.13 10.99 81.13 9.97L81.13 9.97Q81.13 8.99 81.54 8.18Q81.94 7.36 82.71 6.88Q83.48 6.40 84.55 6.40L84.55 6.40Q85.53 6.40 86.20 6.80Q86.88 7.21 87.23 7.90Q87.57 8.58 87.57 9.44L87.57 9.44Q87.57 9.86 87.46 10.39L87.46 10.39L82.94 10.39Q83.08 11.31 83.66 11.77Q84.25 12.22 85.08 12.22L85.08 12.22Q86.21 12.22 87.18 11.65L87.18 11.65L87.26 13.12Q86.81 13.36 86.22 13.50Q85.62 13.65 84.92 13.65L84.92 13.65ZM82.98 9.21L85.81 9.21Q85.81 8.67 85.50 8.25Q85.19 7.83 84.55 7.83L84.55 7.83Q83.90 7.83 83.51 8.20Q83.12 8.58 82.98 9.21L82.98 9.21ZM92.01 13.65Q90.85 13.65 90.01 13.17Q89.18 12.68 88.76 11.86Q88.34 11.03 88.34 10.02L88.34 10.02Q88.34 9.00 88.76 8.17Q89.18 7.34 90.02 6.85Q90.86 6.37 92.06 6.37L92.06 6.37Q93.14 6.37 93.94 6.82L93.94 6.82L93.80 8.22Q93.04 7.83 92.23 7.83L92.23 7.83Q91.24 7.83 90.68 8.43Q90.12 9.03 90.12 10.02L90.12 10.02Q90.12 10.98 90.69 11.60Q91.27 12.22 92.22 12.22L92.22 12.22Q93.02 12.22 93.81 11.76L93.81 11.76L93.97 13.23Q93.59 13.43 93.08 13.54Q92.57 13.65 92.01 13.65L92.01 13.65ZM97.41 13.65Q96.49 13.65 96.01 13.11Q95.54 12.57 95.54 11.82L95.54 11.82L95.54 7.94L94.54 7.94L94.70 6.51L95.54 6.51L95.54 4.97L97.27 4.79L97.27 6.51L98.81 6.51L98.81 7.94L97.27 7.94L97.27 11.10Q97.27 11.66 97.33 11.88Q97.40 12.10 97.60 12.16Q97.80 12.22 98.34 12.22L98.34 12.22L98.81 12.22L98.66 13.65L97.41 13.65ZM103.12 13.65Q102.02 13.65 101.21 13.16Q100.39 12.67 99.96 11.84Q99.53 11.02 99.53 10.02L99.53 10.02Q99.53 9.03 99.96 8.19Q100.39 7.35 101.21 6.86Q102.02 6.37 103.12 6.37L103.12 6.37Q104.23 6.37 105.04 6.86Q105.85 7.35 106.29 8.19Q106.72 9.03 106.72 10.02L106.72 10.02Q106.72 11.02 106.29 11.84Q105.85 12.67 105.04 13.16Q104.23 13.65 103.12 13.65L103.12 13.65ZM103.12 12.22Q103.98 12.22 104.46 11.62Q104.94 11.02 104.94 10.02L104.94 10.02Q104.94 9.02 104.46 8.41Q103.98 7.80 103.12 7.80L103.12 7.80Q102.27 7.80 101.79 8.41Q101.30 9.02 101.30 10.02L101.30 10.02Q101.30 11.02 101.79 11.62Q102.27 12.22 103.12 12.22L103.12 12.22ZM109.91 13.65Q109.24 13.65 108.69 13.52Q108.14 13.40 107.55 13.13L107.55 13.13L107.70 11.65Q108.29 12.00 108.80 12.17Q109.31 12.35 109.86 12.35L109.86 12.35Q110.92 12.35 110.92 11.65L110.92 11.65Q110.92 11.27 110.64 11.07Q110.36 10.86 109.63 10.58L109.63 10.58Q108.60 10.21 108.11 9.72Q107.62 9.24 107.62 8.41L107.62 8.41Q107.62 7.50 108.32 6.94Q109.02 6.37 110.21 6.37L110.21 6.37Q111.40 6.37 112.38 6.92L112.38 6.92L112.22 8.40Q111.69 8.04 111.22 7.84Q110.75 7.64 110.24 7.64L110.24 7.64Q109.79 7.64 109.54 7.83Q109.30 8.01 109.30 8.34L109.30 8.34Q109.30 8.61 109.45 8.78Q109.59 8.95 109.86 9.08Q110.12 9.21 110.74 9.45L110.74 9.45Q111.76 9.84 112.21 10.31Q112.66 10.78 112.66 11.56L112.66 11.56Q112.66 12.56 111.94 13.10Q111.23 13.65 109.91 13.65L109.91 13.65Z"></path></g><defs data-v-423bf9ae=""><linearGradient data-v-423bf9ae="" gradientTransform="rotate(25)" id="3ade8e1e-b50e-4bd7-93ba-582167092bc6" x1="0%" y1="0%" x2="100%" y2="0%"><stop data-v-423bf9ae="" offset="0%" style="stop-color: rgb(66, 15, 20); stop-opacity: 1;"></stop><stop data-v-423bf9ae="" offset="100%" style="stop-color: rgb(197, 84, 94); stop-opacity: 1;"></stop></linearGradient></defs><g data-v-423bf9ae="" id="fba6f9aa-96d8-49b4-8e98-7d001a5280d0" transform="matrix(2.8125,0,0,2.8125,-21.194407999515533,0)" stroke="none" fill="url(#3ade8e1e-b50e-4bd7-93ba-582167092bc6)"><path d="M18.396 26.495L7.807 15.905 18.432 5.28l.707.707-9.918 9.918 9.882 9.883z"></path><path d="M23.194 1v4.194H19V1h4.194m1-1H18v6.194h6.194V0zM23.194 26.806V31H19v-4.194h4.194m1-1H18V32h6.194v-6.194z"></path></g><!----></svg>